PathFileType	4	(X/Y/Z)	s03c0403.trc
DataRate	CameraRate	NumFrames	NumMarkers	Units	OrigDataRate	OrigDataStartFrame	OrigNumFrames
200	200	6	52	mm	200	1750	2000
Frame#	Time	racr			lacr			c7			jug			rlel			rdr			llel			ldr			s2			lic			ric			lasi			rasi			rpsi			lpsi			rgt			lgt			rth1			rth2			rth3			rth4			rlfc			rmfc			rsh1			rsh2			rsh3			rsh4			rlmal			rmmal			rcal			rtoe			rmt5			rmt1			lth1			lth2			lth4			lth3			llfc			lmfc			lsh1			lsh2			lsh3			lsh4			llmal			lmmal			lcal			ltoe			lmt1			lmt5			SBIKE			LBIKE			RBIKE			
		X1	Y1	Z1	X2	Y2	Z2	X3	Y3	Z3	X4	Y4	Z4	X5	Y5	Z5	X6	Y6	Z6	X7	Y7	Z7	X8	Y8	Z8	X9	Y9	Z9	X10	Y10	Z10	X11	Y11	Z11	X12	Y12	Z12	X13	Y13	Z13	X14	Y14	Z14	X15	Y15	Z15	X16	Y16	Z16	X17	Y17	Z17	X18	Y18	Z18	X19	Y19	Z19	X20	Y20	Z20	X21	Y21	Z21	X22	Y22	Z22	X23	Y23	Z23	X24	Y24	Z24	X25	Y25	Z25	X26	Y26	Z26	X27	Y27	Z27	X28	Y28	Z28	X29	Y29	Z29	X30	Y30	Z30	X31	Y31	Z31	X32	Y32	Z32	X33	Y33	Z33	X34	Y34	Z34	X35	Y35	Z35	X36	Y36	Z36	X37	Y37	Z37	X38	Y38	Z38	X39	Y39	Z39	X40	Y40	Z40	X41	Y41	Z41	X42	Y42	Z42	X43	Y43	Z43	X44	Y44	Z44	X45	Y45	Z45	X46	Y46	Z46	X47	Y47	Z47	X48	Y48	Z48	X49	Y49	Z49	X50	Y50	Z50	X51	Y51	Z51	X52	Y52	Z52	
1750	8.7500	626.398884	1454.201708	-16.417187	611.289810	1491.115905	-341.540182	556.603024	1547.186307	-167.990715	585.290896	1375.679199	-185.771788	568.406658	1184.261441	91.240749	741.135136	983.319824	-13.349153	594.259259	1234.318330	-468.622920	740.053298	973.952258	-445.618275	35.633021	1261.207275	-163.661508	204.185449	1287.060707	-358.986043	224.776802	1253.843270	8.555333	212.757917	1211.526101	-322.753916	237.371695	1176.995007	-42.833284	71.376194	1302.410751	-113.405396	69.853928	1311.630842	-196.940742	140.662300	1144.937787	13.609525	142.336896	1217.749657	-375.475246	173.813145	990.555673	24.787679	217.909576	913.605891	18.039657	221.012409	829.349385	0.735300	252.489549	924.932043	10.366952	240.880762	708.470520	-40.572812	257.723847	698.327221	-151.983432	193.102411	545.415377	-21.094592	199.774034	457.068509	-35.415978	160.091141	378.320373	-44.248738	230.697771	454.627114	-59.420534	126.127322	250.771564	-74.172130	155.020042	265.827579	-152.466364	62.833309	218.715692	-111.152083	367.892025	155.530541	-113.131474	247.595368	161.588536	-43.557050	276.675135	176.252747	-156.907175	231.837624	1134.643743	-440.605994	309.566215	1107.766834	-469.018811	333.418858	1131.842907	-453.850729	362.272499	1040.606130	-497.142414	471.361400	958.250821	-520.633806	503.466887	932.884924	-396.341452	351.257151	833.191945	-512.004830	315.874766	760.901258	-481.257513	241.769721	714.695811	-457.713890	343.883100	742.329415	-461.823928	160.274855	623.314603	-417.473170	204.424589	634.433226	-335.375552	86.848773	607.496214	-361.723179	371.545899	492.213454	-362.553524	282.429370	521.082225	-317.954877	250.024403	506.675039	-433.594924	-213.922479	945.515300	-232.241254	-9.167772	80.874404	-433.414574	-9.135802	80.726393	-33.026397	
1751	8.7550	625.797205	1454.018639	-16.093897	610.730921	1491.032285	-341.301534	555.981991	1547.100389	-167.685541	584.714076	1375.482106	-185.542284	568.116734	1183.975291	91.557085	741.065089	983.269529	-13.150275	594.316427	1234.349175	-468.675754	740.065562	973.959795	-445.686068	34.995159	1261.015641	-163.579680	203.642647	1286.946289	-358.847715	224.196653	1253.667391	8.654112	212.168871	1211.389333	-322.505499	236.777042	1176.846915	-42.804133	71.259390	1302.009467	-113.824610	69.744392	1311.010142	-197.399129	140.124779	1144.786348	13.584215	141.790620	1217.681229	-375.436424	173.413946	990.434907	24.806649	217.591807	913.542094	18.061650	220.752252	829.253574	0.737190	252.151840	924.904531	10.360982	240.692624	708.415067	-40.577214	257.491602	698.305804	-152.022446	193.048104	545.312942	-21.104913	199.746638	456.993240	-35.425674	160.132307	378.162396	-44.282967	230.680385	454.496648	-59.488759	126.273906	250.637193	-74.252041	155.171599	265.709526	-152.511607	63.013120	218.484765	-111.190009	368.142593	155.669450	-113.148260	247.836633	161.576187	-43.559642	276.905607	176.229646	-156.926964	231.263307	1134.643146	-440.715807	308.971588	1107.809518	-469.056005	332.812278	1131.858449	-453.861612	361.688414	1040.627477	-497.192255	470.807948	958.323896	-520.735315	502.858375	932.899223	-396.490500	350.734844	833.201577	-512.109885	315.333361	760.919923	-481.322754	241.308679	714.706848	-457.762977	343.407748	742.357718	-461.969649	159.835469	623.241243	-417.504480	203.999058	634.424925	-335.383522	86.420228	607.359794	-361.740023	371.153802	492.304237	-362.514579	282.065551	521.112411	-317.902560	249.678677	506.656624	-433.584763	-213.914496	945.522234	-232.252321	-9.181178	80.843853	-433.366186	-9.134602	80.713620	-33.034515	
1752	8.7600	625.230244	1453.754115	-15.743172	610.271619	1490.904315	-341.019986	555.333615	1546.998970	-167.380073	584.151585	1375.330683	-185.342448	567.820258	1183.761410	91.826150	740.992683	983.194634	-12.943722	594.166198	1234.287639	-468.486253	740.075818	973.950460	-445.781210	34.434779	1260.982894	-163.552026	203.144371	1286.864698	-358.726574	223.522070	1253.412916	8.723177	211.637673	1211.283226	-322.525090	236.156036	1176.680374	-42.793123	70.072582	1302.060105	-113.349431	68.608647	1311.327648	-196.793657	139.560422	1144.616136	13.562266	141.194309	1217.610223	-375.383548	172.965839	990.296543	24.798968	217.251356	913.426861	18.077768	220.499896	829.174793	0.763162	251.832864	924.861955	10.388272	240.511699	708.339283	-40.590256	257.280614	698.298899	-152.071279	192.976015	545.225553	-21.127084	199.759135	456.916487	-35.437762	160.145338	378.035054	-44.305809	230.666776	454.416047	-59.513150	126.421300	250.455194	-74.302739	155.287291	265.605807	-152.546148	63.209543	218.253687	-111.239574	368.413806	155.823949	-113.121899	248.077175	161.576845	-43.585335	277.145081	176.229419	-156.966605	230.663620	1134.614604	-440.665020	308.370162	1107.785207	-469.058489	332.218040	1131.843728	-453.871084	361.096558	1040.643654	-497.215816	470.271135	958.371360	-520.841540	502.344860	932.981689	-396.545362	350.151640	833.270504	-512.163275	314.877329	760.944542	-481.375723	240.820121	714.688767	-457.772903	342.893612	742.387713	-462.013909	159.384185	623.190559	-417.483797	203.524277	634.406902	-335.346017	85.979475	607.264646	-361.731322	370.581478	492.197098	-361.693125	281.736347	521.124199	-317.877550	249.324580	506.670441	-433.589622	-213.916393	945.514889	-232.247101	-9.167341	80.871366	-433.404789	-9.129828	80.717052	-33.052638	
1753	8.7650	624.563899	1453.560808	-15.433585	609.747904	1490.734537	-340.762322	554.693658	1546.870601	-167.102843	583.615624	1375.207820	-185.015805	567.540592	1183.547755	92.108695	740.939239	983.114502	-12.727745	594.011010	1234.230114	-468.314888	740.076981	973.942616	-445.864941	33.740096	1260.732355	-163.526842	202.623608	1286.766466	-358.610463	222.849894	1253.107452	8.908603	211.049070	1211.170103	-322.360973	235.549980	1176.471664	-42.741414	70.023263	1301.677158	-113.717437	68.523011	1310.703407	-197.347729	138.972077	1144.427520	13.559992	140.640788	1217.547613	-375.350063	172.523229	990.154633	24.798635	216.879868	913.345882	18.079603	220.236717	829.067250	0.755301	251.491296	924.839980	10.387933	240.345495	708.268390	-40.602359	257.257964	698.065436	-151.753175	192.910155	545.102376	-21.136048	199.743407	456.827068	-35.461942	160.170889	377.903137	-44.308349	230.680573	454.336242	-59.533301	126.560277	250.277911	-74.359310	155.459529	265.453624	-152.608858	63.380897	218.031152	-111.249691	368.674193	155.966840	-113.089028	248.324648	161.567317	-43.564291	277.382430	176.253140	-156.977382	230.088383	1134.580119	-440.657121	307.777698	1107.797566	-469.070508	331.653195	1131.845588	-453.835376	360.532669	1040.655431	-497.271938	469.646330	958.403766	-520.897860	501.800971	933.018402	-396.581109	349.663041	833.306130	-512.205505	314.369167	760.885966	-481.293778	240.320983	714.654135	-457.776116	342.439411	742.397081	-462.097576	158.986467	623.119087	-417.444036	203.060194	634.348351	-335.316498	85.565016	607.151278	-361.742606	370.504767	492.450909	-362.462247	281.400707	521.148157	-317.849481	248.980209	506.646686	-433.599242	-213.925181	945.511346	-232.231581	-9.173439	80.833154	-433.368508	-9.128997	80.702823	-33.033688	
1754	8.7700	623.880290	1453.378236	-15.156923	609.197970	1490.612949	-340.508251	554.031165	1546.713000	-166.849026	583.065557	1375.055894	-184.706365	567.199915	1183.324131	92.348834	740.911602	983.038228	-12.462410	593.835890	1234.139982	-468.129536	740.052493	973.919173	-445.961183	33.118932	1260.547067	-163.492978	202.049891	1286.670440	-358.493365	222.270235	1252.997421	8.966383	210.505189	1211.022993	-322.251469	234.937366	1176.316084	-42.638021	68.826691	1301.714558	-113.233549	67.364411	1311.106361	-196.662761	138.401134	1144.295499	13.567719	140.051119	1217.474798	-375.326240	172.097760	990.030225	24.804132	216.495464	913.208480	18.070061	219.940312	828.986391	0.764927	250.965086	924.891043	10.480555	240.144527	708.165208	-40.614572	256.873160	698.159556	-152.087232	192.835022	544.979540	-21.164262	199.734904	456.746149	-35.484058	160.230082	377.784461	-44.363276	230.664279	454.242063	-59.553381	126.720330	250.086319	-74.403518	155.610762	265.295038	-152.642815	63.624541	217.712585	-111.264796	368.955512	156.147947	-113.112897	248.559495	161.546735	-43.585895	277.614217	176.270438	-156.999998	229.475559	1134.549079	-440.597840	307.157764	1107.903507	-469.375269	331.030614	1131.839231	-453.852540	359.970594	1040.681972	-497.312872	469.080784	958.452545	-521.047578	501.220937	933.042767	-396.699016	349.127609	833.343665	-512.229631	313.848517	760.872059	-481.364213	239.869234	714.624942	-457.802442	341.943236	742.398984	-462.112089	158.554396	623.046728	-417.448239	202.600094	634.325646	-335.316565	85.148854	606.971067	-361.683437	370.198746	492.525248	-362.486374	280.987769	521.165979	-317.809628	248.630737	506.638717	-433.599680	-213.923612	945.514633	-232.224786	-9.172534	80.844036	-433.365213	-9.116330	80.719466	-33.031317	
1755	8.7750	623.259455	1453.251358	-14.844480	608.720880	1490.491380	-340.251615	553.374605	1546.595214	-166.560739	582.505172	1374.903646	-184.486830	566.811657	1183.116654	92.625098	740.883167	982.993740	-12.214539	593.597790	1234.161565	-468.291858	740.036984	973.900000	-446.073731	32.580651	1260.486335	-163.501272	201.583815	1286.573971	-358.418088	221.597016	1252.806392	9.063434	209.896850	1210.900050	-322.190128	234.276411	1176.108490	-42.647686	68.750822	1301.330667	-113.661064	67.291007	1310.476554	-197.274088	137.778243	1143.896200	12.961482	139.461253	1217.434667	-375.274463	171.686178	989.884145	24.817045	216.107077	913.102408	18.086911	219.661254	828.895173	0.744813	250.635718	924.660843	10.404106	239.976398	708.080588	-40.633778	256.692330	698.101823	-152.118302	192.761694	544.870396	-21.173911	199.734445	456.661661	-35.482145	160.277371	377.656399	-44.380507	230.668747	454.151952	-59.568380	126.858690	249.911412	-74.410894	155.700599	265.210538	-152.706155	63.812274	217.467546	-111.292491	369.250652	156.312652	-113.128565	248.804731	161.526086	-43.606352	277.834246	176.269827	-157.012063	228.879904	1134.531593	-440.681379	306.528876	1107.915617	-469.371965	330.458163	1131.851614	-453.893313	359.392599	1040.699173	-497.330244	468.538685	958.635001	-521.020796	500.645768	933.088031	-396.773859	348.533956	833.400252	-512.292395	313.370087	760.905312	-481.501149	239.357780	714.627606	-457.837029	341.431263	742.400212	-462.103229	158.105241	623.013391	-417.457714	202.174516	634.290899	-335.318869	84.748677	606.845734	-361.639299	369.812157	492.641960	-362.544407	280.570436	521.182984	-317.828716	248.268314	506.613777	-433.572837	-213.934339	945.504308	-232.226055	-9.173442	80.866220	-433.417227	-9.133593	80.716614	-33.029204	
